<svg width="126" height="114" viewBox="0 0 126 114" fill="none" xmlns="http://www.w3.org/2000/svg">
<path d="M41.5122 86.6616C39.2931 86.6616 35.8545 87.8145 33.8461 89.2271L1.41196 111.145C-0.602792 112.557 -0.44249 113.698 1.77657 113.694H66.5253C68.7444 113.694 72.183 112.538 74.1915 111.126L106.622 89.2113C108.637 87.7987 108.474 86.6553 106.258 86.6585L41.5122 86.6616Z" fill="#EEEEEE"/>
<path d="M79.3492 0.347599C79.0536 0.389345 78.771 0.497595 78.5226 0.664326L39.9844 25.5655C38.7272 26.3699 38.2557 28.4445 38.8938 30.2087L66.5535 106.622C67.0501 107.997 68.0936 108.776 69.1246 108.656L70.3818 108.507L80.6127 0.201904L79.3492 0.347599Z" fill="#C5C9FF"/>
<path d="M79.7863 0.505091C81.0436 -0.299398 82.5523 0.479753 83.1903 2.24393L108.188 71.2906L110.85 78.6513C111.479 80.4028 111.001 82.4805 109.756 83.285L71.2181 108.202C69.9608 109.006 68.4553 108.224 67.8204 106.473L40.1607 30.059C39.5321 28.2979 40.0067 26.2202 41.2514 25.4157L79.7863 0.505091Z" fill="url(#paint0_linear)"/>
<path d="M109.404 76.9095L82.4769 2.56081C82.1406 1.63279 81.4869 1.03418 80.8111 1.03418C80.5771 1.03527 80.3486 1.10577 80.1542 1.23689L68.5434 8.73383C68.4427 8.8046 68.3612 8.89963 68.3063 9.01028C68.2514 9.12092 68.2248 9.24366 68.2291 9.36729V10.8907C68.231 11.0113 68.2033 11.1305 68.1485 11.2377C68.0936 11.3449 68.0134 11.4368 67.9148 11.5052L55.1159 19.7781C55.0193 19.8416 54.9082 19.8791 54.7932 19.8868C54.6781 19.8946 54.5631 19.8724 54.459 19.8225L52.9063 19.0908C52.8435 19.0611 52.7742 19.0478 52.705 19.0522C52.6358 19.0567 52.5688 19.0787 52.5102 19.1162L41.6129 26.1602C40.7046 26.7493 40.3557 28.3963 40.8429 29.755L67.525 103.42C67.5647 103.554 67.6344 103.677 67.7289 103.779C67.8233 103.882 67.94 103.961 68.0697 104.011C68.1995 104.061 68.3389 104.08 68.4772 104.067C68.6154 104.054 68.7489 104.009 68.8671 103.936L109.09 77.923C109.248 77.8141 109.364 77.6549 109.421 77.4711C109.478 77.2872 109.472 77.0894 109.404 76.9095Z" fill="#3E65FF"/>
<path d="M93.8175 91.3553L93.4498 90.3418C93.4091 90.2012 93.3366 90.072 93.2382 89.9642C93.1397 89.8565 93.0179 89.7731 92.8821 89.7207C92.7464 89.6683 92.6005 89.6481 92.4558 89.6619C92.3111 89.6757 92.1715 89.723 92.0479 89.8002L89.7 91.3173C89.4888 91.4657 89.3329 91.681 89.2571 91.9289C89.1814 92.1769 89.1901 92.4432 89.282 92.6856L89.6497 93.7023C89.6908 93.8426 89.7635 93.9715 89.8621 94.0789C89.9607 94.1863 90.0826 94.2693 90.2183 94.3214C90.354 94.3735 90.4997 94.3933 90.6443 94.3793C90.7888 94.3653 90.9282 94.3179 91.0515 94.2407L93.3995 92.7236C93.6107 92.5752 93.7666 92.36 93.8423 92.112C93.9181 91.8641 93.9094 91.5977 93.8175 91.3553Z" fill="url(#paint1_linear)"/>
<path d="M93.817 91.3553L93.4493 90.3418C93.3767 90.116 93.2229 89.9258 93.0181 89.8086C92.8134 89.6914 92.5725 89.6556 92.3429 89.7083C92.539 89.7184 92.7277 89.7875 92.8845 89.9066C93.0413 90.0257 93.1592 90.1894 93.223 90.3766L93.5876 91.3933C93.6792 91.6352 93.6878 91.901 93.612 92.1484C93.5363 92.3959 93.3805 92.6106 93.1695 92.7584L90.8216 94.2755C90.7311 94.3275 90.6321 94.3628 90.5293 94.38C90.7122 94.3953 90.8951 94.3509 91.0511 94.2534L93.399 92.7362C93.613 92.5872 93.7707 92.3698 93.8466 92.1191C93.9224 91.8684 93.912 91.5993 93.817 91.3553Z" fill="#E0DBE1"/>
<path d="M58.1711 16.2309C58.102 16.0377 57.9323 15.9522 57.794 16.0409L54.9651 17.8716C54.8935 17.9324 54.843 18.0146 54.821 18.1063C54.7989 18.198 54.8065 18.2944 54.8425 18.3815C54.9148 18.5747 55.0814 18.6602 55.2197 18.5716L58.0486 16.744C58.12 16.6824 58.1704 16.5997 58.1924 16.5075C58.2144 16.4154 58.207 16.3186 58.1711 16.2309Z" fill="#3E65FF"/>
<path d="M67.1788 10.4028C67.1065 10.2096 66.94 10.1241 66.7985 10.2159L63.9697 12.0435C63.8991 12.1057 63.8497 12.1887 63.8283 12.2807C63.8069 12.3727 63.8145 12.4692 63.8503 12.5566C63.9194 12.7498 64.0891 12.8353 64.2243 12.7466L67.0531 10.9159C67.1259 10.8553 67.1775 10.7727 67.2001 10.6803C67.2228 10.5879 67.2153 10.4906 67.1788 10.4028Z" fill="#3E65FF"/>
<path d="M61.5783 14.0136C61.4589 13.6969 61.1791 13.5448 60.9497 13.6969C60.831 13.7998 60.7478 13.9382 60.7122 14.0919C60.6766 14.2456 60.6904 14.4067 60.7517 14.552C60.868 14.8687 61.1477 15.0144 61.3803 14.8687C61.499 14.7658 61.5822 14.6274 61.6178 14.4737C61.6534 14.32 61.6396 14.1589 61.5783 14.0136Z" fill="#3E65FF"/>
<path opacity="0.1" d="M61.4084 14.115C61.3172 13.8585 61.094 13.7476 60.918 13.8648C60.8247 13.9449 60.7594 14.053 60.7316 14.1733C60.7039 14.2936 60.7153 14.4198 60.764 14.5331C60.852 14.7833 61.0783 14.8942 61.2481 14.7801C61.3418 14.7011 61.4079 14.5938 61.4368 14.4741C61.4656 14.3544 61.4557 14.2286 61.4084 14.115Z" fill="#3E65FF"/>
<path opacity="0.1" d="M61.289 14.1912C61.2293 14.0328 61.0942 13.9631 60.9747 14.036C60.9162 14.086 60.8752 14.1536 60.8576 14.2288C60.8401 14.3041 60.847 14.383 60.8773 14.4541C60.9339 14.6124 61.0722 14.6821 61.1916 14.6093C61.2497 14.559 61.2905 14.4914 61.308 14.4162C61.3255 14.3411 61.3189 14.2623 61.289 14.1912Z" fill="#3E65FF"/>
<g style="mix-blend-mode:screen" opacity="0.2">
<path d="M61.1534 14.2766C61.1345 14.2228 61.0874 14.1974 61.0496 14.2228C61.0296 14.2405 61.0156 14.264 61.0094 14.2901C61.0032 14.3162 61.0052 14.3436 61.0151 14.3685C61.0339 14.4223 61.0811 14.4445 61.1188 14.4191C61.1393 14.4026 61.1539 14.3796 61.1601 14.3538C61.1664 14.328 61.164 14.3009 61.1534 14.2766Z" fill="#3E65FF"/>
</g>
<path d="M45.843 46.7979L44.9849 44.3496C44.9326 44.21 44.8606 44.0788 44.7712 43.96C44.7081 43.8761 44.6316 43.8033 44.5449 43.7446C44.4689 43.6928 44.3788 43.6663 44.2871 43.6686C44.2513 43.674 44.217 43.687 44.1865 43.7066L43.9131 43.884C43.9436 43.8643 43.9779 43.8514 44.0137 43.846C44.1053 43.8436 44.1955 43.8702 44.2714 43.922C44.3582 43.9806 44.4346 44.0534 44.4977 44.1374C44.5785 44.2432 44.6451 44.3592 44.6957 44.4826L45.5727 46.9847C45.6921 47.3236 45.6575 47.6182 45.4972 47.7259L45.7707 47.5485C45.9278 47.4377 45.9656 47.1368 45.843 46.7979Z" fill="#F9F7FB"/>
<path d="M45.5732 46.9756L44.712 44.5178C44.6293 44.276 44.4759 44.0651 44.2719 43.9128C44.196 43.861 44.1059 43.8345 44.0142 43.8368C43.7722 43.8685 43.6999 44.2137 43.8382 44.616L44.6994 47.0738C44.7788 47.3164 44.9329 47.5273 45.1394 47.6755C45.2145 47.7295 45.305 47.7573 45.3972 47.7547C45.6361 47.7262 45.7178 47.3778 45.5732 46.9756Z" fill="#C5C9FF"/>
<path d="M44.498 44.1283L44.7715 43.9509C44.8524 44.0561 44.918 44.1723 44.9664 44.2962L44.6961 44.4735C44.6454 44.3502 44.5788 44.2341 44.498 44.1283Z" fill="white"/>
<path d="M44.0899 41.8157L42.4366 37.1377C42.3867 36.9977 42.3157 36.8663 42.226 36.7481C42.1636 36.6655 42.0883 36.5939 42.0029 36.5359C41.9269 36.4841 41.8368 36.4575 41.7451 36.4599C41.7093 36.4653 41.6751 36.4782 41.6445 36.4979L41.3711 36.6752C41.4018 36.6561 41.436 36.6432 41.4717 36.6372C41.5633 36.6349 41.6535 36.6615 41.7294 36.7132C41.8148 36.7712 41.8902 36.8429 41.9526 36.9254C42.0335 37.0278 42.0981 37.1421 42.1443 37.2643C42.1663 37.315 43.8165 41.9931 43.8165 41.9931C43.9359 42.332 43.8982 42.6265 43.7379 42.7311L44.0113 42.5537C44.1685 42.4492 44.2094 42.1483 44.0899 41.8157Z" fill="#F9F7FB"/>
<path d="M43.8157 41.9869L42.1656 37.3088C42.0853 37.0675 41.9327 36.8572 41.7287 36.707C41.6527 36.6552 41.5626 36.6287 41.471 36.631C41.2321 36.6627 41.1566 37.0142 41.2918 37.407L42.942 42.085C43.0213 42.3278 43.1741 42.5393 43.3789 42.69C43.4532 42.7423 43.5429 42.7679 43.6334 42.7628C43.8755 42.7375 43.9603 42.3891 43.8157 41.9869Z" fill="#C5C9FF"/>
<path d="M41.9531 36.9196L42.2266 36.7422C42.3064 36.8452 42.371 36.9594 42.4183 37.0811L42.1449 37.2585C42.0987 37.1362 42.034 37.0219 41.9531 36.9196Z" fill="white"/>
<path opacity="0.3" d="M68.7215 101.076L47.481 31.5126C47.22 30.658 47.5576 29.734 48.308 29.2489L87.0213 4.22386C88.1366 3.50288 89.632 4.04923 90.0199 5.31943L110.928 73.7928L68.7215 101.076Z" fill="#003DF0"/>
<path d="M110.928 73.7927L68.7218 101.076L58.8512 29.8644C58.7445 29.0943 59.0937 28.3322 59.7466 27.9102L98.2465 3.02298C99.475 2.22887 101.113 2.97907 101.313 4.42802L110.928 73.7927Z" fill="#6B82FF"/>
<g style="mix-blend-mode:screen" opacity="0.95">
<path d="M111.051 73.8656L68.8413 101.149V30.4043L111.051 3.12134V73.8656Z" fill="white"/>
</g>
<path d="M84.1358 20.5224L68.8413 30.4043V101.149L84.1358 91.2635V33.8756L111.051 16.4746V3.12134L84.1358 20.5224Z" fill="#E8EAFF"/>
<path d="M111.051 7.36874L68.8413 34.6517V29.2194C68.8413 28.88 69.0134 28.5637 69.2985 28.3795L109.508 2.38934C110.173 1.95925 111.051 2.43689 111.051 3.22918V7.36874Z" fill="#9BA6FF"/>
<path d="M81.7753 42.3671L70.9063 49.3921C70.6328 49.5695 70.4097 49.4649 70.4097 49.1577V44.8566C70.4223 44.6818 70.4734 44.5121 70.5593 44.3598C70.6452 44.2075 70.7637 44.0764 70.9063 43.9761L81.7753 36.951C82.0519 36.7705 82.2751 36.8782 82.2751 37.1854V41.4992C82.2605 41.6721 82.2081 41.8396 82.1217 41.9896C82.0353 42.1397 81.917 42.2686 81.7753 42.3671Z" fill="#FF537B"/>
<path d="M108.593 15.5057L103.68 18.6951C103.52 18.7997 103.388 18.7363 103.388 18.5558V16.0378C103.396 15.9358 103.426 15.837 103.477 15.7483C103.527 15.6596 103.597 15.5832 103.68 15.5247L108.593 12.3574C108.753 12.2529 108.882 12.3131 108.882 12.4936V14.9989C108.874 15.0997 108.844 15.1974 108.794 15.285C108.744 15.3726 108.675 15.448 108.593 15.5057Z" fill="white"/>
<path d="M101.889 19.8385L96.9728 23.0058C96.8125 23.1103 96.6836 23.0501 96.6836 22.8696V20.3738C96.6907 20.2719 96.7204 20.173 96.7705 20.0842C96.8205 19.9954 96.8896 19.919 96.9728 19.8607L101.889 16.6934C102.049 16.5889 102.178 16.6522 102.178 16.8296V19.3286C102.17 19.4299 102.141 19.5283 102.091 19.6166C102.041 19.7048 101.972 19.7806 101.889 19.8385Z" fill="white"/>
<path d="M89.2465 28.0104L84.3338 31.1777C84.1735 31.2822 84.0415 31.222 84.0415 31.0415V28.5456C84.049 28.4435 84.0792 28.3444 84.1298 28.2556C84.1804 28.1668 84.2501 28.0906 84.3338 28.0325L89.2465 24.8653C89.4068 24.7607 89.5357 24.8241 89.5357 25.0015V27.5068C89.5274 27.607 89.4972 27.7042 89.4472 27.7913C89.3972 27.8783 89.3287 27.9532 89.2465 28.0104Z" fill="white"/>
<path d="M75.8698 33.9262L70.3599 37.4894V37.2297L75.8698 33.6665V33.9262ZM75.8698 34.7814L70.3599 38.3319V38.5916L75.8698 35.0284V34.7814ZM75.8698 35.8963L70.3599 39.4594V39.7192L75.8698 36.156V35.8963ZM75.8698 37.0111L70.3599 40.5743V40.834L75.8698 37.2709V37.0111Z" fill="#C5C9FF"/>
<path d="M109.749 22.1789L89.1046 35.5227V32.6721L109.749 19.3284V22.1789ZM87.8222 33.5146L85.3926 35.0982V37.9488L87.8222 36.381V33.5146Z" fill="#E8EAFF"/>
<path d="M109.749 27.0564L89.1046 40.4001V37.5495L109.749 24.2058V27.0564ZM87.8222 38.392L85.3926 39.9757V42.8262L87.8222 41.2426V38.392Z" fill="#E8EAFF"/>
<path d="M109.749 31.9499L89.1046 45.3V42.4494L109.749 29.1057V31.9499ZM87.8222 43.2856L85.3926 44.8692V47.7198L87.8222 46.1362V43.2856Z" fill="#E8EAFF"/>
<path d="M109.749 36.8435L89.1046 50.1872V47.3367L109.749 33.9929V36.8435ZM87.8222 48.1792L85.3926 49.7628V52.6133L87.8222 51.0297V48.1792Z" fill="#E8EAFF"/>
<path d="M109.749 41.7368L89.1046 55.0805V52.23L109.749 38.8862V41.7368ZM87.8222 53.0725L85.3926 54.6561V57.5067L87.8222 55.923V53.0725Z" fill="#E8EAFF"/>
<path d="M109.749 46.6303L89.1046 59.9741V57.1235L109.749 43.7798V46.6303ZM87.8222 57.9692L85.3926 59.5528V62.4034L87.8222 60.8197V57.9692Z" fill="#E8EAFF"/>
<path d="M109.749 51.5239L89.1046 64.8676V62.0171L109.749 48.6733V51.5239ZM87.8222 62.8596L85.3926 64.4432V67.2938L87.8222 65.7101V62.8596Z" fill="#E8EAFF"/>
<path d="M109.749 56.4174L89.1046 69.7612V66.9106L109.749 53.5669V56.4174ZM87.8222 67.7531L85.3926 69.3368V72.1873L87.8222 70.6037V67.7531Z" fill="#E8EAFF"/>
<path d="M109.749 61.3073L89.1046 74.6511V71.8005L109.749 58.4568V61.3073ZM87.8222 72.643L85.3926 74.2266V77.0772L87.8222 75.4936V72.643Z" fill="#E8EAFF"/>
<path d="M109.749 66.2043L89.1046 79.5481V76.6975L109.749 63.3538V66.2043ZM87.8222 77.54L85.3926 79.1236V81.9742L87.8222 80.3905V77.54Z" fill="#E8EAFF"/>
<path d="M109.749 71.0852L89.1046 84.4289V81.5783L109.749 68.2346V71.0852ZM87.8222 82.4208L85.3926 84.0045V86.855L87.8222 85.2714V82.4208Z" fill="#E8EAFF"/>
<path d="M86.0911 34.6582C86.0737 34.904 86.002 35.1428 85.8813 35.357C85.7606 35.5713 85.5938 35.7557 85.3933 35.8966C85.0035 36.1469 84.6924 35.998 84.6924 35.5641C84.7097 35.3179 84.7817 35.0788 84.903 34.8645C85.0243 34.6501 85.1919 34.466 85.3933 34.3257C85.7799 34.0755 86.0911 34.2148 86.0911 34.6582Z" fill="#FF537B"/>
<path d="M86.0911 39.4913C86.0739 39.7366 86.0023 39.975 85.8815 40.1888C85.7608 40.4026 85.5939 40.5863 85.3933 40.7265C85.0035 40.9767 84.6924 40.831 84.6924 40.4098C84.7097 40.1636 84.7817 39.9245 84.903 39.7102C85.0243 39.4958 85.1919 39.3117 85.3933 39.1714C85.7799 38.9085 86.0911 39.0573 86.0911 39.4913Z" fill="#FF537B"/>
<path d="M86.0911 44.3973C86.0737 44.6426 86.002 44.8809 85.8812 45.0946C85.7605 45.3084 85.5938 45.4922 85.3933 45.6325C85.0035 45.8827 84.6924 45.737 84.6924 45.3158C84.7097 45.0696 84.7817 44.8305 84.903 44.6162C85.0243 44.4018 85.1919 44.2177 85.3933 44.0774C85.7799 43.8145 86.0911 43.9633 86.0911 44.3973Z" fill="#FF537B"/>
<path d="M76.3258 49.9401L74.8296 50.9124V51.4414L76.5898 50.3043L77.3913 49.7849V49.256L76.332 49.9401H76.3258ZM74.1004 51.3812L71.6079 52.9902L70.8001 53.5128V54.0417L71.6079 53.5191L74.1004 51.907V51.3812ZM73.1135 54.1146L70.7812 55.6222V56.1479L73.1135 54.6435V54.1146ZM76.3949 51.9925L73.8395 53.6458V54.1684L76.5835 52.3916L78.3719 51.2355V50.7161L76.3949 51.983V51.9925ZM78.1928 49.2623L80.7827 47.5868V47.0579L78.1928 48.7333V49.2623Z" fill="#C5C9FF"/>
<path d="M73.4624 58.8464V59.3753L77.385 56.8415V56.3126L73.4624 58.8464ZM72.7363 59.3152L71.6079 60.0436L70.8001 60.5662V61.0952L71.6079 60.5726L72.7363 59.8441V59.3152ZM75.0276 59.9328L70.7812 62.6756V63.2046L75.0276 60.4586V59.9328ZM75.7506 59.464V59.993L78.3719 58.2985V57.7695L75.7506 59.464ZM78.1928 56.3158L80.7827 54.6434V54.1145L78.1928 55.7868V56.3158Z" fill="#C5C9FF"/>
<path d="M76.3258 64.0501L74.8296 65.0193V65.5483L76.5898 64.4112L77.3913 63.8918V63.3533L76.332 64.0375L76.3258 64.0501ZM74.1004 65.4881L71.6079 67.1002L70.8001 67.6197V68.1486L71.6079 67.6292L74.1004 66.017V65.4881ZM73.1135 68.2214L70.7812 69.7291V70.258L73.1135 68.7504V68.2214ZM73.8395 67.7527V68.2816L77.6113 65.846V65.317L73.8395 67.7527ZM78.1928 63.3692L80.4559 61.9059V61.3801L78.1928 62.8434V63.3692Z" fill="#C5C9FF"/>
<path d="M74.8297 72.0727V72.6016L78.3783 70.3212V69.7922L74.8297 72.0727ZM74.1068 72.5414L71.6142 74.1536L70.8065 74.6762V75.202L71.6142 74.6825L74.1068 73.0704V72.5414ZM73.1198 75.2748L70.7876 76.7824V77.3114L73.1198 75.8037V75.2748ZM73.8459 74.806V75.335L75.3546 74.3595V73.8337L73.8459 74.806Z" fill="#C5C9FF"/>
<path d="M73.7452 79.8235V80.3493L75.9171 78.9462V78.4173L73.7452 79.8235ZM73.0223 80.2923L71.6079 81.2045L70.8001 81.7239V82.2528L71.6079 81.7302L73.0223 80.8149V80.2923ZM75.3357 80.8909L70.7812 83.8333V84.3622L75.3357 81.4199V80.8909ZM76.7249 78.4236L77.8942 77.6698V77.1409L76.7155 77.8979L76.7249 78.4236Z" fill="#C5C9FF"/>
<path d="M98.1396 45.5692V67.6356L125.988 49.6328V27.5632L98.1396 45.5692Z" fill="#FFC522"/>
<path opacity="0.7" d="M113.491 45.6643L113.403 45.7815L125.947 49.6677L126.001 49.6329V49.5601L113.491 45.6643Z" fill="#EB9A1E"/>
<path opacity="0.7" d="M98.1392 67.5309V67.6355L98.2617 67.5563L113.39 45.7844H113.239L98.1392 67.5309Z" fill="#EB9A1E"/>
<path d="M98.1396 45.5712L125.988 27.5684L125.334 29.3737L113.711 52.5297L99.1895 46.0652L98.1396 45.5712Z" fill="#FFD83E"/>
<defs>
<linearGradient id="paint0_linear" x1="39.8778" y1="54.352" x2="111.13" y2="54.352" gradientUnits="userSpaceOnUse">
<stop stop-color="#FAF8FC"/>
<stop offset="1" stop-color="#F8F6FA"/>
</linearGradient>
<linearGradient id="paint1_linear" x1="1723.92" y1="1651.64" x2="1793.72" y2="1651.64" gradientUnits="userSpaceOnUse">
<stop stop-color="#FAF8FC"/>
<stop offset="1" stop-color="#F8F6FA"/>
</linearGradient>
</defs>
</svg>
